<svg width="347" height="43" viewBox="0 0 347 43" fill="none" xmlns="http://www.w3.org/2000/svg">
<path d="M12.32 8.7L21.56 23.64L29.84 10.62C31.2 8.54 31.88 6.94 31.88 5.82C31.88 3.98 30.5 3.06 27.74 3.06V2.28H40.88V3.06C37.84 3.1 35.16 5.02 32.84 8.82L22.46 25.2V35.4C22.46 37.96 22.76 39.56 23.36 40.2C23.96 40.8 25.54 41.14 28.1 41.22V42H13.1V41.22C15.3 41.18 16.78 40.8 17.54 40.08C18.34 39.36 18.74 37.8 18.74 35.4V25.68L6.2 6.42C4.76 4.18 2.86 3.06 0.5 3.06V2.28H15.74V3.06C14.14 3.06 12.96 3.24 12.2 3.6C11.44 3.96 11.06 4.62 11.06 5.58C11.06 6.34 11.48 7.38 12.32 8.7ZM54.3247 21.66V36.3C54.3247 37.7 54.4447 38.66 54.6847 39.18C54.9247 39.7 55.3047 39.96 55.8247 39.96C56.6647 39.96 57.8247 39.18 59.3047 37.62V38.82C58.5847 39.86 57.6647 40.8 56.5447 41.64C55.4647 42.44 54.5447 42.84 53.7847 42.84C52.9447 42.84 52.2447 42.42 51.6847 41.58C51.1647 40.74 50.9047 39.62 50.9047 38.22C48.5847 40.1 46.8847 41.32 45.8047 41.88C44.6447 42.52 43.3647 42.84 41.9647 42.84C40.1647 42.84 38.7047 42.22 37.5847 40.98C36.5047 39.74 35.9647 38.1 35.9647 36.06C35.9647 33.74 37.1047 31.74 39.3847 30.06C41.5447 28.38 45.3847 26.54 50.9047 24.54C50.9047 22.42 50.7847 20.82 50.5447 19.74C50.3447 18.42 49.8447 17.44 49.0447 16.8C48.2847 16.16 47.1247 15.78 45.5647 15.66C44.0847 15.66 42.9247 16.02 42.0847 16.74C41.2847 17.46 40.8847 18.44 40.8847 19.68C40.8847 22.32 40.1447 23.64 38.6647 23.64C38.0647 23.64 37.5847 23.42 37.2247 22.98C36.9047 22.54 36.7447 21.98 36.7447 21.3C36.7447 19.58 37.6247 18 39.3847 16.56C41.1447 15.08 43.4847 14.34 46.4047 14.34C48.8447 14.34 50.7647 15 52.1647 16.32C53.6047 17.64 54.3247 19.42 54.3247 21.66ZM50.9047 36.66V25.92C46.9047 27.36 44.0047 28.82 42.2047 30.3C40.4047 31.74 39.5047 33.3 39.5047 34.98C39.5047 36.58 39.9047 37.84 40.7047 38.76C41.5047 39.68 42.5247 40.14 43.7647 40.14C44.8047 40.14 45.7647 39.9 46.6447 39.42C47.7647 38.86 49.1847 37.94 50.9047 36.66ZM77.3862 38.28L68.2662 27.06L76.1863 19.62C77.3863 18.46 77.9863 17.64 77.9863 17.16C77.9863 16.4 77.3063 16 75.9463 15.96V15.18H86.6863V15.96C84.9663 15.96 83.5063 16.2 82.3063 16.68C81.1462 17.16 79.9262 18.02 78.6462 19.26L71.8662 25.74L80.3263 36.3C82.9663 39.58 85.5263 41.22 88.0063 41.22V42H76.3663V41.22C77.6062 41.22 78.2262 40.84 78.2262 40.08C78.2262 39.56 77.9462 38.96 77.3862 38.28ZM67.5463 0.36H68.2062V37.2C68.2062 38.68 68.5062 39.72 69.1062 40.32C69.7462 40.92 70.8262 41.22 72.3462 41.22V42H60.6462V41.22C62.2062 41.22 63.2862 40.94 63.8862 40.38C64.4862 39.82 64.7862 38.76 64.7862 37.2V6.54C64.7862 4.58 64.0462 3.6 62.5662 3.6C61.8462 3.6 61.1062 3.78 60.3462 4.14L60.0462 3.48L67.5463 0.36ZM106.962 38.28L97.842 27.06L105.762 19.62C106.962 18.46 107.562 17.64 107.562 17.16C107.562 16.4 106.882 16 105.522 15.96V15.18H116.262V15.96C114.542 15.96 113.082 16.2 111.882 16.68C110.722 17.16 109.502 18.02 108.222 19.26L101.442 25.74L109.902 36.3C112.542 39.58 115.102 41.22 117.582 41.22V42H105.942V41.22C107.182 41.22 107.802 40.84 107.802 40.08C107.802 39.56 107.522 38.96 106.962 38.28ZM97.122 0.36H97.782V37.2C97.782 38.68 98.082 39.72 98.682 40.32C99.322 40.92 100.402 41.22 101.922 41.22V42H90.222V41.22C91.782 41.22 92.862 40.94 93.462 40.38C94.062 39.82 94.362 38.76 94.362 37.2V6.54C94.362 4.58 93.622 3.6 92.142 3.6C91.422 3.6 90.682 3.78 89.922 4.14L89.622 3.48L97.122 0.36ZM127.492 14.34H128.152V37.2C128.152 38.76 128.452 39.82 129.052 40.38C129.652 40.9 130.832 41.18 132.592 41.22V42H120.412V41.22C122.092 41.18 123.232 40.9 123.832 40.38C124.432 39.82 124.732 38.76 124.732 37.2V20.64C124.732 19.52 124.572 18.74 124.252 18.3C123.932 17.82 123.392 17.58 122.632 17.58C122.072 17.58 121.252 17.8 120.172 18.24L119.932 17.52L127.492 14.34ZM123.652 3.54C123.652 2.9 123.892 2.34 124.372 1.86C124.852 1.38 125.412 1.14 126.052 1.14C126.692 1.14 127.252 1.38 127.732 1.86C128.212 2.3 128.452 2.86 128.452 3.54C128.452 4.22 128.212 4.8 127.732 5.28C127.252 5.76 126.692 6 126.052 6C125.412 6 124.852 5.76 124.372 5.28C123.892 4.8 123.652 4.22 123.652 3.54ZM148.282 14.34C151.482 14.34 154.322 15.66 156.802 18.3C159.282 20.9 160.522 24.12 160.522 27.96C160.522 30.44 160.102 32.78 159.262 34.98C158.382 37.26 156.962 39.14 155.002 40.62C153.042 42.1 150.782 42.84 148.222 42.84C145.062 42.84 142.242 41.46 139.762 38.7C137.282 35.9 136.042 32.64 136.042 28.92C136.042 24.84 137.222 21.38 139.582 18.54C141.902 15.74 144.802 14.34 148.282 14.34ZM147.682 15.84C145.482 15.84 143.642 16.82 142.162 18.78C140.682 20.74 139.942 23.32 139.942 26.52C139.942 30.84 140.802 34.4 142.522 37.2C144.242 40 146.502 41.4 149.302 41.4C151.102 41.4 152.582 40.76 153.742 39.48C154.942 38.2 155.722 36.8 156.082 35.28C156.442 33.76 156.622 32.18 156.622 30.54C156.622 25.86 155.802 22.24 154.162 19.68C152.522 17.12 150.362 15.84 147.682 15.84ZM179.813 14.34H180.593V23.52H179.813C179.693 21.16 178.993 19.26 177.713 17.82C176.433 16.38 174.733 15.66 172.613 15.66C171.253 15.66 170.053 16.08 169.013 16.92C168.013 17.72 167.513 18.76 167.513 20.04C167.513 22.48 169.253 24.46 172.733 25.98C176.173 27.46 178.473 28.68 179.633 29.64C181.433 31.24 182.353 33.14 182.393 35.34C182.393 37.62 181.513 39.46 179.753 40.86C177.993 42.18 175.973 42.84 173.693 42.84C172.133 42.84 170.693 42.64 169.373 42.24C168.053 41.84 167.193 41.64 166.793 41.64C166.193 41.64 165.833 41.9 165.713 42.42H164.933V32.82H165.713C165.873 35.38 166.673 37.48 168.113 39.12C169.553 40.72 171.493 41.52 173.933 41.52C175.373 41.52 176.613 41.12 177.653 40.32C178.653 39.48 179.153 38.32 179.153 36.84C179.153 35.32 178.653 34.06 177.653 33.06C176.893 32.26 175.713 31.44 174.113 30.6C172.553 29.76 171.133 29.04 169.853 28.44C168.573 27.84 167.413 26.98 166.373 25.86C165.373 24.74 164.873 23.42 164.873 21.9C164.873 19.66 165.633 17.84 167.153 16.44C168.673 15.04 170.593 14.34 172.913 14.34C173.793 14.34 174.813 14.54 175.973 14.94C177.253 15.3 178.113 15.48 178.553 15.48C179.113 15.48 179.533 15.1 179.813 14.34ZM191.674 42.9C190.914 42.9 190.254 42.62 189.694 42.06C189.174 41.5 188.914 40.86 188.914 40.14C188.914 39.42 189.174 38.8 189.694 38.28C190.254 37.72 190.914 37.44 191.674 37.44C192.394 37.44 193.014 37.72 193.534 38.28C194.094 38.8 194.374 39.42 194.374 40.14C194.374 40.86 194.094 41.5 193.534 42.06C193.014 42.62 192.394 42.9 191.674 42.9ZM225.334 1.38H225.934V15.12H225.334C225.094 11.84 223.974 8.96 221.974 6.48C220.014 4.04 217.434 2.82 214.234 2.82C212.074 2.82 210.194 3.5 208.594 4.86C207.034 6.26 206.254 7.9 206.254 9.78C206.254 13.1 208.854 16.06 214.054 18.66C218.814 20.86 222.014 22.56 223.654 23.76C226.934 26.12 228.554 28.76 228.514 31.68C228.514 34.96 227.414 37.64 225.214 39.72C223.014 41.84 220.114 42.9 216.514 42.9C214.274 42.9 212.174 42.54 210.214 41.82C208.294 41.06 206.874 40.68 205.954 40.68C205.314 40.68 204.874 40.86 204.634 41.22C204.434 41.54 204.274 42.1 204.154 42.9H203.374V29.28H204.154C204.354 31.52 204.914 33.5 205.834 35.22C206.754 36.94 207.874 38.22 209.194 39.06C211.674 40.58 213.934 41.34 215.974 41.34C218.654 41.34 220.794 40.7 222.394 39.42C223.994 38.1 224.794 36.28 224.794 33.96C224.794 32.28 224.254 30.78 223.174 29.46C222.774 28.94 222.334 28.46 221.854 28.02C221.374 27.58 220.754 27.14 219.994 26.7C219.274 26.26 218.694 25.94 218.254 25.74C217.854 25.5 217.114 25.12 216.034 24.6C214.994 24.08 214.294 23.72 213.934 23.52L208.714 20.64C207.034 19.64 205.674 18.36 204.634 16.8C203.634 15.24 203.134 13.52 203.134 11.64C203.134 8.64 204.234 6.18 206.434 4.26C208.634 2.34 211.314 1.38 214.474 1.38C216.234 1.38 218.014 1.76 219.814 2.52C221.694 3.28 222.854 3.66 223.294 3.66C224.334 3.66 225.014 2.9 225.334 1.38ZM239.315 6.96V15.18H245.615V16.5H239.315V34.74C239.315 36.62 239.515 37.92 239.915 38.64C240.315 39.36 241.075 39.72 242.195 39.72C242.915 39.72 243.595 39.44 244.235 38.88C244.915 38.28 245.395 37.52 245.675 36.6H246.455C245.975 38.4 245.215 39.82 244.175 40.86C243.135 41.86 241.915 42.36 240.515 42.36C237.435 42.36 235.895 40.22 235.895 35.94V16.5H231.275V15.72C233.395 15.16 234.995 14.24 236.075 12.96C237.155 11.68 238.015 9.68 238.655 6.96H239.315ZM262.318 15.18H270.178V36C270.178 37.36 270.318 38.3 270.598 38.82C270.878 39.3 271.458 39.54 272.338 39.54C272.938 39.54 273.658 39.38 274.498 39.06L274.798 39.78L267.358 42.84H266.758V37.2C263.278 40.96 260.018 42.84 256.978 42.84C255.058 42.84 253.558 42.14 252.478 40.74C251.398 39.34 250.858 37.42 250.858 34.98V20.64C250.858 18.68 250.598 17.44 250.078 16.92C249.598 16.32 248.378 16 246.418 15.96V15.18H254.278V34.62C254.278 38.5 255.798 40.44 258.838 40.44C260.038 40.44 261.378 39.96 262.858 39C264.418 37.96 265.718 36.88 266.758 35.76V20.64C266.758 18.68 266.498 17.44 265.978 16.92C265.498 16.32 264.278 16 262.318 15.96V15.18ZM296.007 17.22V7.5C296.007 5.98 295.847 4.96 295.527 4.44C295.207 3.88 294.627 3.6 293.787 3.6C293.227 3.6 292.487 3.78 291.567 4.14L291.267 3.42L298.707 0.36H299.427V36.48C299.427 37.72 299.567 38.54 299.847 38.94C300.167 39.34 300.767 39.54 301.647 39.54C302.407 39.54 303.087 39.42 303.687 39.18L303.987 39.84L296.607 42.84H296.007V38.46C293.047 41.38 290.127 42.84 287.247 42.84C284.487 42.84 282.107 41.6 280.107 39.12C278.187 36.6 277.227 33.42 277.227 29.58C277.227 25.54 278.327 22 280.527 18.96C282.767 15.88 285.687 14.34 289.287 14.34C292.127 14.34 294.367 15.3 296.007 17.22ZM296.007 36.78V23.34C296.007 21.14 295.347 19.34 294.027 17.94C292.707 16.54 291.007 15.84 288.927 15.84C286.567 15.84 284.667 16.86 283.227 18.9C281.787 20.94 281.067 23.8 281.067 27.48C281.067 31.16 281.847 34.2 283.407 36.6C285.047 38.96 287.027 40.14 289.347 40.14C291.307 40.14 293.527 39.02 296.007 36.78ZM313.297 14.34H313.957V37.2C313.957 38.76 314.257 39.82 314.857 40.38C315.457 40.9 316.637 41.18 318.397 41.22V42H306.217V41.22C307.897 41.18 309.037 40.9 309.637 40.38C310.237 39.82 310.537 38.76 310.537 37.2V20.64C310.537 19.52 310.377 18.74 310.057 18.3C309.737 17.82 309.197 17.58 308.437 17.58C307.877 17.58 307.057 17.8 305.977 18.24L305.737 17.52L313.297 14.34ZM309.457 3.54C309.457 2.9 309.697 2.34 310.177 1.86C310.657 1.38 311.217 1.14 311.857 1.14C312.497 1.14 313.057 1.38 313.537 1.86C314.017 2.3 314.257 2.86 314.257 3.54C314.257 4.22 314.017 4.8 313.537 5.28C313.057 5.76 312.497 6 311.857 6C311.217 6 310.657 5.76 310.177 5.28C309.697 4.8 309.457 4.22 309.457 3.54ZM334.088 14.34C337.288 14.34 340.128 15.66 342.608 18.3C345.088 20.9 346.328 24.12 346.328 27.96C346.328 30.44 345.908 32.78 345.068 34.98C344.188 37.26 342.768 39.14 340.808 40.62C338.848 42.1 336.588 42.84 334.028 42.84C330.868 42.84 328.048 41.46 325.568 38.7C323.088 35.9 321.848 32.64 321.848 28.92C321.848 24.84 323.028 21.38 325.388 18.54C327.708 15.74 330.608 14.34 334.088 14.34ZM333.488 15.84C331.288 15.84 329.448 16.82 327.968 18.78C326.488 20.74 325.748 23.32 325.748 26.52C325.748 30.84 326.608 34.4 328.328 37.2C330.048 40 332.308 41.4 335.108 41.4C336.908 41.4 338.388 40.76 339.548 39.48C340.748 38.2 341.528 36.8 341.888 35.28C342.248 33.76 342.428 32.18 342.428 30.54C342.428 25.86 341.608 22.24 339.968 19.68C338.328 17.12 336.168 15.84 333.488 15.84Z" fill="black"/>
</svg>
