<svg width="41" height="40" viewBox="0 0 41 40" fill="none" xmlns="http://www.w3.org/2000/svg">
<path d="M13.3571 26.6667C20.7341 26.6667 26.7143 20.6971 26.7143 13.3333C26.7143 5.96954 20.7341 0 13.3571 0C5.9802 0 0 5.96954 0 13.3333C0 20.6971 5.9802 26.6667 13.3571 26.6667Z" fill="#DE028E"/>
<path d="M26.7146 40.0007C34.0915 40.0007 40.0717 34.0312 40.0717 26.6674C40.0717 19.3036 34.0915 13.334 26.7146 13.334C19.3376 13.334 13.3574 19.3036 13.3574 26.6674C13.3574 34.0312 19.3376 40.0007 26.7146 40.0007Z" fill="#90D5EF"/>
<path d="M11.8299 14.269C12.6211 12.794 13.7092 11.6496 15.0941 10.8366C16.4789 10.0237 18.0206 9.61719 19.7199 9.61719C21.4192 9.61719 22.8496 9.97738 24.0842 10.6977C25.3179 11.4181 26.1091 12.2403 26.7148 13.3329V10.0005H30.0541V29.1672H26.7148V25.8339C26.0859 26.9487 25.2761 27.5135 24.0313 28.245C22.7856 28.9765 21.3367 29.3431 19.6847 29.3431C18.0326 29.3431 16.4493 28.9246 15.0764 28.0885C13.7027 27.2524 12.6202 26.0792 11.8299 24.569C11.0387 23.0589 10.6426 21.3403 10.6426 19.4116C10.6426 17.4829 11.0378 15.7468 11.8299 14.2709V14.269ZM25.8419 15.8107C25.2603 14.7422 24.4747 13.9237 23.485 13.3542C22.4952 12.7848 21.4081 12.5005 20.2208 12.5005C19.0335 12.5005 17.951 12.7792 16.9743 13.3366C15.9966 13.894 15.2165 14.7079 14.6349 15.7765C14.0533 16.845 13.7621 18.0996 13.7621 19.5403C13.7621 20.9811 14.0524 22.2765 14.6349 23.3561C15.2165 24.4366 15.9966 25.2616 16.9743 25.8302C17.9519 26.3996 19.0344 26.6839 20.2208 26.6839C21.4072 26.6839 22.4952 26.3996 23.485 25.8302C24.4738 25.2607 25.2594 24.4357 25.8419 23.3561C26.4235 22.2755 26.7148 21.0153 26.7148 19.5746C26.7148 18.1339 26.4235 16.8802 25.8419 15.8107Z" fill="white"/>
<path d="M25.8415 15.7926C25.2599 14.7241 24.4743 13.9056 23.4846 13.3361C22.4948 12.7667 21.4077 12.4824 20.2204 12.4824C19.0331 12.4824 17.9506 12.7611 16.9739 13.3185C15.9962 13.876 15.2161 14.6898 14.6345 15.7584C14.0529 16.8269 13.7617 18.0815 13.7617 19.5222C13.7617 20.963 14.052 22.2584 14.6345 23.338C15.2161 24.4185 15.9962 25.2435 16.9739 25.8121C17.9515 26.3815 19.034 26.6658 20.2204 26.6658C21.4068 26.6658 22.4948 26.3815 23.4846 25.8121C24.4734 25.2426 25.259 24.4176 25.8415 23.338C26.4231 22.2574 26.7144 20.9972 26.7144 19.5565C26.7144 18.1158 26.4231 16.8621 25.8415 15.7926Z" fill="#CC40B9"/>
</svg>
