<svg width="24" height="23" viewBox="0 0 24 23" fill="none" xmlns="http://www.w3.org/2000/svg">
<path d="M3.25183 3.12818C1.0713 5.22993 -0.0130051 8.03611 0.000117728 11.5476C-0.0130051 14.9721 1.071 17.7043 3.22619 19.7691C5.38169 21.8212 8.251 22.8593 11.8473 22.8717C14.4614 22.8717 16.7061 22.3771 18.5552 21.4007C20.4555 20.399 21.9601 18.9156 23.0569 16.9254L18.0705 14.6754C17.5477 15.689 16.859 16.4558 16.0048 16.9626C15.2268 17.4694 14.2191 17.7165 13.0079 17.7165C11.5283 17.7165 10.3809 17.3088 9.55169 16.4801C8.68436 15.6393 8.251 14.4772 8.251 12.9813V12.8701H23.2098L23.2992 11.6091C23.2992 8.03611 22.2662 5.19265 20.2129 3.07847C18.1728 1.0143 15.3797 -0.0120238 11.8473 0.000106268C8.26382 -0.0120238 5.40732 1.03856 3.25183 3.12818ZM9.34783 5.57608C9.92187 4.87135 10.7507 4.51278 11.8473 4.51278C12.9438 4.51278 13.8111 4.88378 14.4361 5.61306C15.048 6.35506 15.3541 7.40594 15.3669 8.76569H8.41672C8.42954 7.38109 8.74876 6.31779 9.34783 5.57608Z" fill="url(#paint0_linear_44_38)"/>
<defs>
<linearGradient id="paint0_linear_44_38" x1="11.6498" y1="-0.56468" x2="11.6498" y2="24.6347" gradientUnits="userSpaceOnUse">
<stop stop-color="#F19520"/>
<stop offset="0.25" stop-color="#EA8521"/>
<stop offset="0.714" stop-color="#E06C24"/>
<stop offset="1" stop-color="#DD6426"/>
</linearGradient>
</defs>
</svg>
