<svg width="21" height="24" viewBox="0 0 21 24" fill="none" xmlns="http://www.w3.org/2000/svg">
<g clip-path="url(#clip0_341_21)">
<path d="M20.1499 22.7319C20.2214 22.8276 20.2647 22.9406 20.2751 23.0587C20.2854 23.1768 20.2625 23.2953 20.2088 23.4016C20.1569 23.5079 20.0756 23.5979 19.9741 23.6613C19.8726 23.7247 19.7549 23.759 19.6345 23.7604H15.953C15.3395 23.7604 14.8707 23.6644 14.5259 23.4676C14.1897 23.2715 13.9081 22.9974 13.7061 22.6695L7.39982 14.4794C7.28244 14.3182 7.12713 14.1869 6.947 14.0966C6.85006 14.0522 6.61445 13.9766 6.11868 13.9766H5.44865V23.1124C5.45028 23.1964 5.43486 23.2799 5.40329 23.358C5.37171 23.4362 5.32461 23.5075 5.26471 23.5677C5.2048 23.628 5.13328 23.676 5.05427 23.7091C4.97526 23.7422 4.89034 23.7596 4.8044 23.7604H0.644369C0.558491 23.7597 0.473593 23.7425 0.394592 23.7095C0.315591 23.6766 0.244058 23.6287 0.184135 23.5685C0.124213 23.5083 0.0770937 23.4372 0.045506 23.3591C0.0139183 23.281 -0.00150944 23.1975 0.000116341 23.1136V0.871278C-0.000692841 0.787813 0.0153385 0.705011 0.0472928 0.627611C0.079247 0.550212 0.126497 0.479735 0.186338 0.420214C0.246179 0.360692 0.317436 0.313296 0.396031 0.280737C0.474626 0.248179 0.559015 0.231097 0.644369 0.230469H4.8044C4.97668 0.232054 5.14128 0.300421 5.26207 0.420562C5.38286 0.540704 5.44996 0.702803 5.44865 0.871278V9.56179H5.77753C6.0248 9.571 6.27153 9.5331 6.504 9.45019C6.6655 9.38017 6.80551 9.27014 6.91019 9.13098L13.0827 1.36568C13.3556 0.996684 13.7161 0.698101 14.1332 0.495673C14.5567 0.319023 15.0142 0.233881 15.4745 0.24607H19.0614C19.1833 0.245859 19.3028 0.279606 19.4058 0.34336C19.5088 0.407115 19.5911 0.498241 19.6431 0.606074C19.696 0.715348 19.7164 0.836946 19.7021 0.957026C19.6878 1.0771 19.6393 1.19084 19.5621 1.28528L12.0262 10.5278C11.8174 10.7815 11.5924 11.022 11.3525 11.2478C11.3966 11.2802 11.4384 11.3138 11.4752 11.3486C11.8157 11.6366 12.1193 11.9638 12.3796 12.323L20.1499 22.7319Z" fill="black"/>
</g>
<defs>
<clipPath id="clip0_341_21">
<rect width="21" height="24" fill="white"/>
</clipPath>
</defs>
</svg>
