<?xml version="1.0" encoding="UTF-8"?> <svg xmlns="http://www.w3.org/2000/svg" id="Layer_1" viewBox="0 0 265 105"><defs><style>.cls-1{fill:lime;}.cls-2{fill:#fff;}</style></defs><path class="cls-1" d="M86.7799988,42.4699955c0,23.3499985-17.8799973,34.0899963-39.0999985,34.0899963S8.5,66.3799915,8.5,42.4699955,26.5699997,8.5699939,47.6899986,8.5699939s39.0999947,9.0799999,39.0999947,33.9099998M168.7899933,74.9999942l-18.2899933-65h-48.6600037l-18.1100006,65h32.9100037l4.0899963-14.7000008h11l4.1399994,14.7000008h32.9199982ZM216.5500031,9.9999942l-12.1000061,16.2000008V9.9999942h-32.0399933v65h84.1399841l-22.1000061-33.8499985,21.0800018-31.1499996h-38.9799957l.0000153-.0000019Z"></path><path class="cls-2" d="M25.4300003,86.6999912c-.1800003-.3600006-.4699993-.6800003-.8700008-.9400024-.3999996-.2600021-.9300003-.4599991-1.5799999-.6100006-.6499996-.1399994-1.4500008-.2200012-2.3899994-.2200012h-5.4200001v9.8000031h2.6900005v-3.5400009h2.4799995c.6399994,0,1.2399998-.0199966,1.7900009-.0500031.5499992-.0299988,1.0400009-.1100006,1.4699993-.2200012.4300003-.1200027.7999992-.2900009,1.1100006-.5100021.3099995-.2200012.5499992-.5299988.7099991-.9100037.0499992-.0999985.0900002-.2099991.1200008-.3300018s.0599995-.2399979.0799999-.3799973c.0200005-.1299973.0400009-.2699966.0599995-.4199982.0100002-.1399994.0200005-.3000031.0200005-.4700012,0-.4400024-.0900002-.8399963-.2700005-1.1999893ZM22.9599991,88.2399921c0,.0800018-.0200005.1500015-.0400009.2200012-.0100002.0699997-.0400009.1399994-.0599995.1999969-.0300007.0699997-.0599995.1299973-.1100006.1800003-.0799999.1100006-.1900005.2099991-.3299999.3000031-.1399994.0899963-.3099995.1600037-.5300007.2200012h-4.0300007v-2.5899963h4.1599998c.2700005.0800018.5.2099991.6800003.3700027s.2700005.4499969.2700005.8600006c0,.0800018,0,.1600037-.0099983.2399902ZM36.6899986,92.529993v2.1999969h-9.2000008v-9.8000031h9.0299988v2.1999969h-6.3400002v1.4800034h6.1199989v2.2099991h-6.1199989v1.7099991s6.5099983,0,6.5100021.0000076ZM46.9199982,94.7299976h3.1399994l-3.8699989-4.4800034h.0299988c.5699997-.0899963,1.0600014-.2399979,1.4700012-.4599991.4099998-.2099991.7200012-.5.9500008-.8600006.2200012-.3600006.3400002-.8099976.3400002-1.3700027s-.1399994-1.0100021-.4199982-1.3600006c-.2799988-.3399963-.6500015-.6100006-1.1199989-.8000031-.4700012-.1900024-1.0099983-.3199997-1.6199989-.3799973s-1.25-.0899963-1.9099998-.0899963h-5.2099991v9.8000031h2.6899986v-3.8499985h2.5600014l2.9799995,3.8499985h-.010006ZM41.3800011,86.7699909h3.9799995c.1199989.0400009.2400017.0899963.3400002.1500015.1100006.0599976.2000008.1399994.2900009.2200012s.1500015.1900024.2000008.3000031.0800018.2399979.0800018.3899994-.0299988.2900009-.0800018.4199982c-.0499992.1299973-.1300011.25-.2299995.3600006s-.2299995.1999969-.3699989.2699966c-.1500015.0699997-.3199997.1299973-.5099983.1800003h-3.7000008v-2.2799988l-.0000038-.0100021ZM54.2099991,87.1299915v1.7600021h5.6800003v2.1999969h-5.6800003v3.6399994h-2.6899986v-9.8000031h8.7900009v2.1999969s-6.0999985,0-6.1000023.0000076ZM74.6399994,87.6299915c-.1999969-.6100006-.5599976-1.1200027-1.0699997-1.5299988-.5100021-.4199982-1.2099991-.7300034-2.0999985-.9499969s-2.0100021-.3199997-3.3700027-.3199997c-.7600021,0-1.4499969.0400009-2.0800018.1100006-.6299973.0800018-1.1900024.1999969-1.6900024.3799973s-.9300003.4199982-1.2999992.7300034c-.3699989.3000031-.6699982.6800003-.8899994,1.1399994-.0800018.1800003-.1599998.3700027-.2299995.5699997s-.1300011.4199982-.1699982.6399994c-.0400009.2300034-.0699997.4700012-.0999985.7300034s-.0400009.5199966-.0400009.8000031c0,.7799988.0999985,1.4800034.2999992,2.0899963.2000008.6100006.5600014,1.1200027,1.0600014,1.5299988s1.1999969.7300034,2.0899963.9499969,2,.3199997,3.3700027.3199997c.75,0,1.4300003-.0400009,2.0599976-.1100006.6299973-.0800018,1.1999969-.1999969,1.6900024-.3700027s.9300003-.4100037,1.3000031-.6999969c.3700027-.2900009.6699982-.6699982.9000015-1.1100006.0899963-.1800003.1699982-.3700027.25-.5699997.0699997-.2099991.1299973-.4300003.1699982-.6600037.0500031-.2399979.0800018-.4899979.1100006-.75.0199966-.2600021.0299988-.5400009.0299988-.8300018,0-.7799988-.0999985-1.4800034-.3000031-2.0899963h.0100021ZM72.1500015,90.3199939c0,.1399994-.0299988.2799988-.0500031.4100037s-.0500031.2600021-.0800018.3799973c-.0299988.1200027-.0800018.2399979-.1299973.3499985-.1100006.2399979-.2699966.4599991-.4700012.6399994-.1999969.1900024-.4499969.3399963-.75.4599991h-4.8000031c-.2399979-.0999985-.4599991-.2399979-.6399994-.4000015-.1900024-.1600037-.3399963-.3600006-.4700012-.5899963s-.2200012-.5-.2900009-.8000031-.0999985-.6299973-.0999985-.9899979c0-.1299973,0-.2600021.0100021-.3899994,0-.1299973.0199966-.2600021.0400009-.3799973.0199966-.1200027.0400009-.2399979.0800018-.3600006.0299988-.1200027.0800018-.2300034.1299973-.3399963.1299973-.25.3199997-.4800034.5599976-.6800003s.5800018-.3799973,1.0100021-.5199966h4.2699966c.2699966.0800018.5100021.1900024.7200012.3099976s.3899994.3000031.5299988.5100021.25.4800034.3300018.7900009.1100006.6999969.1100006,1.1699982c0,.1500015,0,.2900009-.0099945.4299927ZM85.0599976,94.7299976h3.1399994l-3.8700027-4.4800034h.0299988c.5699997-.0899963,1.0599976-.2399979,1.4700012-.4599991.4100037-.2099991.7200012-.5.9499969-.8600006.2200012-.3600006.3399963-.8099976.3399963-1.3700027s-.1399994-1.0100021-.4199982-1.3600006c-.2799988-.3399963-.6500015-.6100006-1.1200027-.8000031s-1.0100021-.3199997-1.6200027-.3799973-1.25-.0899963-1.9100037-.0899963h-5.2099991v9.8000031h2.6900024v-3.8499985h2.5599976l2.9800034,3.8499985h-.0099869ZM79.5199966,86.7699909h3.9800034c.1200027.0400009.2399979.0899963.3399963.1500015.1100006.0599976.1999969.1399994.2900009.2200012s.1500015.1900024.1999969.3000031c.0500031.1100006.0800018.2399979.0800018.3899994s-.0299988.2900009-.0800018.4199982-.1299973.25-.2300034.3600006-.2300034.1999969-.3700027.2699966c-.1500015.0699997-.3199997.1299973-.5100021.1800003h-3.6999969v-2.2799988l.0000076-.0100021ZM104.7399979,94.7299976h-2.6299973l-.1100006-4.8899994-.0199966-2.9000015-3.5999985,7.4300003h-2.5199966l-3.5899963-7.4199982-.0299988,2.8899994-.1100006,4.8700027h-2.6200027l.3099976-9.8000031h4.0299988l3.2799988,7.1900024,3.3000031-7.1900024h4.0199966l.3099976,9.8000031-.0200043.0199966ZM116.8700027,94.7299976h2.7900009l-4.9700012-9.8000031h-3.6699982l-4.9700012,9.8000031h2.7900009l.9599991-2.0299988h6.1200027l.9599991,2.0299988h-.0100021ZM110.8300018,90.4999942l1.5899963-3.3700027h.8700027l1.5899963,3.3700027s-4.0500031,0-4.0499954,0ZM133.1100006,84.9299945v9.8000031h-2.7599945l-6.6699982-7.3799973.0400009,1.9899979v5.3899994h-2.5999985v-9.8000031h3.3499985l6.0799942,6.6200027-.0299988-2.0400009v-4.5800018h2.6000061-.0100098ZM138.3999939,94.4799976c-.8699951-.2300034-1.5500031-.5599976-2.0599976-.9899979-.5-.4199982-.8500061-.9400024-1.0500031-1.5299988-.1999969-.5999985-.2899933-1.2600021-.2899933-1.9899979,0-.2099991,0-.4199982.0200043-.6200027.0099945-.1999969.0299988-.3799973.0599976-.5699997.0200043-.1800003.0500031-.3600006.0899963-.5199966s.0800018-.3300018.1399994-.4800034c.1999969-.5800018.4799957-1.0599976.8500061-1.4400024.3699951-.3799973.8200073-.6900024,1.3600006-.9100037s1.1499939-.3799973,1.8500061-.4700012,1.4700012-.1299973,2.3200073-.1299973c.7599945,0,1.4199982.0400009,1.9600067.1200027.5399933.0800018,1.0099945.2200012,1.4100037.4199982.3999939.1999969.7400055.4700012,1.0299988.8199997s.5500031.7799988.7899933,1.3199997l-2.1699982.8000031c-.1399994-.2300034-.3000031-.4300003-.4900055-.5800018s-.3999939-.2799988-.6499939-.3700027c-.25-.0899963-.5299988-.1600037-.8500061-.1999969-.3200073-.0400009-.6699982-.0599976-1.0599976-.0599976h-1.8999939c-.3000031.0699997-.5500031.1699982-.7700043.2900009-.2100067.1200027-.3999939.25-.5500031.4000015-.1300049.1200027-.2400055.2600021-.3200073.4100037s-.1499939.3199997-.1999969.4800034c-.0500031.1699982-.0899963.3499985-.1100006.5299988-.0200043.1900024-.0399933.3799973-.0399933.5699997,0,.4300003.0299988.8000031.1000061,1.1100006s.1600037.5699997.2700043.7799988c.1199951.2099991.2599945.3899994.4199982.5299988s.3399963.2600021.5399933.3499985h2.5099945c.4600067,0,.8600006-.0199966,1.1999969-.0599976s.6300049-.0999985.8800049-.1900024c.25-.0899963.4600067-.2099991.6399994-.3600006s.3399963-.3399963.4799957-.5599976l2.1600037.8099976c-.2200012.5199966-.4700012.9499969-.75,1.2900009s-.6100006.5999985-1.0099945.8000031c-.3999939.1999969-.8800049.3300018-1.4400024.4100037s-1.2400055.1200027-2.0299988.1200027c-1.3399963,0-2.4499969-.1200027-3.3200073-.3499985l-.0200195.0199814ZM158.0399933,92.529993v2.1999969h-9.1999969v-9.8000031h9.0299988v2.1999969h-6.3399963v1.4800034h6.1199951v2.2099991h-6.1199951v1.7099991s6.5099945,0,6.5099945.0000076ZM176.6300049,94.7299976h2.7899933l-4.9700012-9.8000031h-3.6699982l-4.9700012,9.8000031h2.7899933l.9600067-2.0299988h6.1199951l.9600067,2.0299988h-.0099945ZM170.5899963,90.4999942l1.5899963-3.3700027h.8699951l1.5899963,3.3700027h-4.0500031.0000153ZM189.75,87.1299915h-4.1699982v7.5999985h-2.6900024v-7.5999985h-4.1999969v-2.1999969h11.0599976v2.1999969ZM214.5700073,84.9299945l-2.6999969,9.8000031h-3.7100067l-2.5800018-8.5100021h-.1999969l-2.5500031,8.5100021h-3.7200012l-2.6999969-9.8000031h2.7400055l1.8500061,7.5999985h.4299927l2.1000061-7.5999985h3.9299927l2.1300049,7.5999985h.4100037l1.8500061-7.5999985h2.7400055-.0200195ZM228.4299927,87.6299915c-.1999969-.6100006-.5599976-1.1200027-1.0700073-1.5299988-.5099945-.4199982-1.2100067-.7300034-2.1000061-.9499969s-2.0099945-.3199997-3.3699951-.3199997c-.7599945,0-1.4499969.0400009-2.0800018.1100006-.6300049.0800018-1.1900024.1999969-1.6900024.3799973s-.9299927.4199982-1.3000031.7300034c-.3699951.3000031-.6699982.6800003-.8899994,1.1399994-.0800018.1800003-.1600037.3700027-.2299957.5699997-.0700073.1999969-.1300049.4199982-.1699982.6399994-.0399933.2300034-.0700073.4700012-.1000061.7300034s-.0399933.5199966-.0399933.8000031c0,.7799988.1000061,1.4800034.3000031,2.0899963.1999969.6100006.5599976,1.1200027,1.0599976,1.5299988s1.1999969.7300034,2.0899963.9499969,2,.3199997,3.3699951.3199997c.75,0,1.4299927-.0400009,2.0599976-.1100006.6300049-.0800018,1.1999969-.1999969,1.6900024-.3700027s.9299927-.4100037,1.3000031-.6999969c.3699951-.2900009.6699982-.6699982.8999939-1.1100006.0899963-.1800003.1699982-.3700027.25-.5699997.0700073-.2099991.1300049-.4300003.1699982-.6600037.0500031-.2399979.0800018-.4899979.1100006-.75.0200043-.2600021.0299988-.5400009.0299988-.8300018,0-.7799988-.1000061-1.4800034-.3000031-2.0899963h.010025ZM225.9400024,90.3199939c0,.1399994-.0299988.2799988-.0500031.4100037s-.0500031.2600021-.0800018.3799973c-.0299988.1200027-.0800018.2399979-.1300049.3499985-.1100006.2399979-.2700043.4599991-.4700012.6399994-.1999969.1900024-.4499969.3399963-.75.4599991h-4.8000031c-.2400055-.0999985-.4600067-.2399979-.6399994-.4000015-.1900024-.1600037-.3399963-.3600006-.4700012-.5899963s-.2200012-.5-.2899933-.8000031-.1000061-.6299973-.1000061-.9899979c0-.1299973,0-.2600021.0099945-.3899994,0-.1299973.0200043-.2600021.0399933-.3799973.0200043-.1200027.0399933-.2399979.0800018-.3600006.0299988-.1200027.0800018-.2300034.1300049-.3399963.1300049-.25.3200073-.4800034.5599976-.6800003.2400055-.1999969.5800018-.3799973,1.0099945-.5199966h4.2700043c.2700043.0800018.5099945.1900024.7200012.3099976s.3899994.3000031.5299988.5100021.25.4800034.3300018.7900009.1100006.6999969.1100006,1.1699982c0,.1500015,0,.2900009-.0099945.4300003l.0000153-.0000076ZM238.8500061,94.7299976h3.1399994l-3.8699951-4.4800034h.0299988c.5700073-.0899963,1.0599976-.2399979,1.4700012-.4599991.4100037-.2099991.7200012-.5.9499969-.8600006.2200012-.3600006.3399963-.8099976.3399963-1.3700027s-.1399994-1.0100021-.4199982-1.3600006c-.2799988-.3399963-.6499939-.6100006-1.1199951-.8000031s-1.0099945-.3199997-1.6199951-.3799973-1.25-.0899963-1.9100037-.0899963h-5.2100067v9.8000031h2.6900024v-3.8499985h2.5599976l2.9799957,3.8499985h-.0099945ZM233.3099976,86.7699909h3.9799957c.1199951.0400009.2400055.0899963.3399963.1500015.1100006.0599976.1999969.1399994.2899933.2200012s.1499939.1900024.1999969.3000031.0800018.2399979.0800018.3899994-.0299988.2900009-.0800018.4199982-.1300049.25-.2299957.3600006-.2299957.1999969-.3699951.2699966c-.1499939.0699997-.3200073.1299973-.5099945.1800003h-3.6999969v-2.2900009ZM247.6499939,90.7699909h-1.8000031v3.9599991h-2.6900024v-9.8000031h2.6900024v3.6299973h1.6900024l3.5899963-3.6299973h3.2799988l-4.7700043,4.4800034,5.1600037,5.3199997h-3.3500061l-3.8000031-3.9599991h.0000153Z"></path></svg> 